<svg xmlns="http://www.w3.org/2000/svg" width="110" height="120" viewBox="0 0 110 120"><g fill="none" fill-rule="evenodd"><path fill="#89ABC0" d="M0 58v-2C0 25 24.6 0 55 0s55 25 55 56v57c0 4-3 7-7 7H7c-4 0-7-3-7-7V58z"/><g transform="translate(10 11.186)"><ellipse cx="44.5" cy="45.3" fill="#FAFBFC" rx="44.5" ry="45.3"/><g transform="translate(39 23.39)"><rect width="30" height="5.1" x="-.6" y="10" fill="#DC3313" transform="rotate(-45 14.374 12.584)" rx="2.5"/><ellipse cx="6" cy="21.4" fill="#999FAB" rx="6" ry="6.1"/></g><g fill="#CCD0D9" transform="translate(5 5.085)"><ellipse cx="40" cy="3.1" rx="3" ry="3.1"/><ellipse cx="40" cy="77.3" rx="3" ry="3.1"/><ellipse cx="3" cy="39.7" rx="3" ry="3.1"/><ellipse cx="76" cy="39.7" rx="3" ry="3.1"/><ellipse cx="21.7" cy="7.8" transform="rotate(-30 21.683 7.77)" rx="3" ry="3.1"/><ellipse cx="58.2" cy="72.1" transform="rotate(-30 58.183 72.06)" rx="3" ry="3.1"/><ellipse cx="7.6" cy="58.3" transform="rotate(-30 7.64 58.288)" rx="3" ry="3.1"/><ellipse cx="70.9" cy="21.2" transform="rotate(-30 70.86 21.17)" rx="3" ry="3.1"/><ellipse cx="8.1" cy="21.2" transform="rotate(-60 8.14 21.17)" rx="3" ry="3.1"/><ellipse cx="71.4" cy="58.3" transform="rotate(-60 71.36 58.288)" rx="3" ry="3.1"/><ellipse cx="20.8" cy="72.1" transform="rotate(-60 20.817 72.06)" rx="3" ry="3.1"/><ellipse cx="57.3" cy="7.8" transform="rotate(-60 57.317 7.77)" rx="3" ry="3.1"/></g></g></g></svg>